<?xml version="1.0" encoding="UTF-8" standalone="no"?>
<!DOCTYPE svg PUBLIC "-//W3C//DTD SVG 1.1//EN" "http://www.w3.org/Graphics/SVG/1.1/DTD/svg11.dtd">
<svg width="100%" height="100%" viewBox="0 0 700 700" version="1.1" xmlns="http://www.w3.org/2000/svg" xmlns:xlink="http://www.w3.org/1999/xlink" xml:space="preserve" xmlns:serif="http://www.serif.com/" style="fill-rule:evenodd;clip-rule:evenodd;stroke-linejoin:round;stroke-miterlimit:2;">
    <path d="M357,131.87L357,76.999C357,73.132 353.871,69.999 350,69.999C346.129,69.999 343,73.132 343,76.999L343,131.87C343,135.737 346.129,138.87 350,138.87C353.871,138.87 357,135.737 357,131.87Z" style="fill-rule:nonzero;stroke:black;stroke-width:15px;"/>
    <path d="M240.95,168.1C242.141,168.1 243.344,167.799 244.442,167.163C247.79,165.229 248.938,160.944 247.005,157.6L219.564,110.08C217.626,106.724 213.341,105.58 210.005,107.514C206.657,109.447 205.509,113.732 207.443,117.076L234.884,164.596C236.18,166.842 238.532,168.1 240.95,168.1Z" style="fill-rule:nonzero;stroke:black;stroke-width:15px;"/>
    <path d="M164.6,234.87L117.077,207.432C113.733,205.498 109.444,206.647 107.511,209.998C105.577,213.346 106.725,217.627 110.073,219.561L157.596,246.999C158.698,247.636 159.901,247.936 161.088,247.936C163.506,247.936 165.858,246.683 167.159,244.436C169.096,241.085 167.948,236.808 164.6,234.87Z" style="fill-rule:nonzero;stroke:black;stroke-width:15px;"/>
    <path d="M138.87,350C138.87,346.133 135.741,343 131.87,343L76.999,343C73.128,343 69.999,346.133 69.999,350C69.999,353.867 73.128,357 76.999,357L131.87,357C135.741,357 138.87,353.867 138.87,350Z" style="fill-rule:nonzero;stroke:black;stroke-width:15px;"/>
    <path d="M113.58,493.5C114.771,493.5 115.974,493.199 117.072,492.563L164.595,465.125C167.943,463.191 169.091,458.91 167.158,455.562C165.216,452.21 160.931,451.062 157.595,453L110.072,480.438C106.725,482.371 105.576,486.652 107.51,490C108.811,492.246 111.162,493.5 113.58,493.5Z" style="fill-rule:nonzero;stroke:black;stroke-width:15px;"/>
    <path d="M234.88,535.4L207.439,582.92C205.509,586.268 206.658,590.553 210.005,592.486C211.107,593.123 212.31,593.424 213.498,593.424C215.916,593.424 218.267,592.17 219.568,589.924L247.009,542.404C248.943,539.056 247.794,534.775 244.446,532.841C241.103,530.9 236.814,532.048 234.88,535.4Z" style="fill-rule:nonzero;stroke:black;stroke-width:15px;"/>
    <path d="M343,568.13L343,623.001C343,626.868 346.129,630.001 350,630.001C353.871,630.001 357,626.868 357,623.001L357,568.13C357,564.263 353.871,561.13 350,561.13C346.129,561.13 343,564.263 343,568.13Z" style="fill-rule:nonzero;stroke:black;stroke-width:15px;"/>
    <path d="M455.56,532.84C452.212,534.774 451.064,539.059 452.998,542.403L480.438,589.923C481.739,592.169 484.091,593.423 486.509,593.423C487.7,593.423 488.903,593.122 490.001,592.485C493.349,590.551 494.497,586.266 492.563,582.923L465.123,535.403C463.185,532.051 458.892,530.903 455.56,532.84Z" style="fill-rule:nonzero;stroke:black;stroke-width:15px;"/>
    <path d="M532.84,455.56C530.906,458.908 532.055,463.189 535.403,465.123L582.926,492.561C584.027,493.197 585.23,493.498 586.422,493.498C588.84,493.498 591.191,492.244 592.492,489.998C594.425,486.65 593.277,482.369 589.929,480.436L542.406,452.998C539.055,451.06 534.777,452.208 532.84,455.56Z" style="fill-rule:nonzero;stroke:black;stroke-width:15px;"/>
    <path d="M623,343L568.129,343C564.258,343 561.129,346.133 561.129,350C561.129,353.867 564.258,357 568.129,357L623,357C626.871,357 630,353.867 630,350C630,346.133 626.871,343 623,343Z" style="fill-rule:nonzero;stroke:black;stroke-width:15px;"/>
    <path d="M592.49,210C590.549,206.648 586.263,205.5 582.928,207.438L535.405,234.875C532.057,236.809 530.908,241.09 532.842,244.438C534.143,246.684 536.494,247.938 538.912,247.938C540.104,247.938 541.307,247.637 542.405,247L589.928,219.563C593.275,217.629 594.424,213.348 592.49,210Z" style="fill-rule:nonzero;stroke:black;stroke-width:15px;"/>
    <path d="M459.05,168.1C461.468,168.1 463.82,166.846 465.12,164.6L492.561,117.08C494.491,113.732 493.343,109.447 489.995,107.514C486.651,105.58 482.366,106.725 480.432,110.076L452.991,157.596C451.058,160.944 452.206,165.225 455.554,167.159C456.656,167.795 457.859,168.1 459.05,168.1L459.05,168.1Z" style="fill-rule:nonzero;stroke:black;stroke-width:15px;"/>
    <path d="M350,177.57C254.918,177.57 177.57,254.922 177.57,350C177.57,445.078 254.918,522.43 350,522.43C445.082,522.43 522.43,445.078 522.43,350C522.43,254.922 445.082,177.57 350,177.57ZM507.77,335.94C492.059,318.139 476.649,311.585 460.528,304.784C446.794,298.987 432.594,292.995 416.778,278.846C386.665,251.924 399.727,213.565 404.962,201.42C461.103,222.252 502.298,274.037 507.772,335.94L507.77,335.94ZM297.71,200.48C301.62,203.507 322.323,220.281 325.034,238.257C325.991,244.577 324.53,250.245 320.569,255.577C297.108,287.175 292.378,296.112 290.909,327.589C289.101,366.12 277.237,410.003 202.721,408.273C195.553,390.222 191.569,370.574 191.569,350.003C191.569,280.964 235.975,222.133 297.709,200.483L297.71,200.48ZM209.112,422.32C300.471,421.09 303.8,351.578 304.897,328.242C306.202,300.32 309.827,293.531 331.811,263.922C338.034,255.543 340.405,246.192 338.873,236.125C336.295,219.156 322.873,204.207 313.783,195.797C325.42,193.063 337.537,191.57 349.998,191.57C364.408,191.57 378.365,193.543 391.643,197.164C385.214,213.269 372.131,257.707 407.44,289.281C425.002,304.984 440.983,311.73 455.085,317.679C474.05,325.683 490.468,332.652 508.112,359.55C506.851,380.663 501.456,400.687 492.694,418.788C463.167,363.159 418.034,354.022 412.092,353.054C407.128,351.667 375.08,344.289 349.885,376.452C323.916,409.6 342.62,461.667 343.651,464.405C343.772,464.667 355.085,489.307 353.155,508.343C352.104,508.371 351.057,508.429 349.999,508.429C288.69,508.429 235.439,473.398 209.109,422.32L209.112,422.32ZM367.232,507.476C368.517,484.996 356.904,459.718 356.56,459.046C356.396,458.581 339.763,412.069 360.9,385.093C381.545,358.73 407.392,366.249 408.443,366.577C408.814,366.698 409.22,366.784 409.603,366.839C411.548,367.116 457.263,374.35 484.435,433.667C459.31,473.901 416.658,502.101 367.235,507.476L367.232,507.476Z" style="fill-rule:nonzero;stroke:black;stroke-width:15px;"/>
</svg>
